<?xml version="1.0" encoding="utf-8" standalone="no"?>
<!DOCTYPE svg PUBLIC "-//W3C//DTD SVG 1.1//EN"
  "http://www.w3.org/Graphics/SVG/1.1/DTD/svg11.dtd">
<svg xmlns:xlink="http://www.w3.org/1999/xlink" width="684pt" height="457.92pt" viewBox="0 0 684 457.92" xmlns="http://www.w3.org/2000/svg" version="1.1">
 <metadata>
  <rdf:RDF xmlns:dc="http://purl.org/dc/elements/1.1/" xmlns:cc="http://creativecommons.org/ns#" xmlns:rdf="http://www.w3.org/1999/02/22-rdf-syntax-ns#">
   <cc:Work>
    <dc:type rdf:resource="http://purl.org/dc/dcmitype/StillImage"/>
    <dc:date>2025-11-07T14:25:06.621916</dc:date>
    <dc:format>image/svg+xml</dc:format>
    <dc:creator>
     <cc:Agent>
      <dc:title>Matplotlib v3.10.7, https://matplotlib.org/</dc:title>
     </cc:Agent>
    </dc:creator>
   </cc:Work>
  </rdf:RDF>
 </metadata>
 <defs>
  <style type="text/css">*{stroke-linejoin: round; stroke-linecap: butt}</style>
 </defs>
 <g id="figure_1">
  <g id="patch_1">
   <path d="M 0 457.92 
L 684 457.92 
L 684 0 
L 0 0 
z
" style="fill: #ffffff"/>
  </g>
  <g id="axes_1">
   <g id="patch_2">
    <path d="M 40.68 104.7744 
L 643.32 104.7744 
L 616.536 24.9408 
L 67.464 24.9408 
z
" clip-path="url(#pd439475e3b)" style="fill: #3b82f6; opacity: 0.12; stroke: #1f2937; stroke-width: 1.6; stroke-linejoin: miter"/>
   </g>
   <g id="patch_3">
    <path d="M 80.856 209.0016 
L 603.144 209.0016 
L 576.36 129.168 
L 107.64 129.168 
z
" clip-path="url(#pd439475e3b)" style="fill: #3b82f6; opacity: 0.12; stroke: #1f2937; stroke-width: 1.6; stroke-linejoin: miter"/>
   </g>
   <g id="patch_4">
    <path d="M 127.728 313.2288 
L 556.272 313.2288 
L 529.488 233.3952 
L 154.512 233.3952 
z
" clip-path="url(#pd439475e3b)" style="fill: #3b82f6; opacity: 0.12; stroke: #1f2937; stroke-width: 1.6; stroke-linejoin: miter"/>
   </g>
   <g id="patch_5">
    <path d="M 174.6 417.456 
L 509.4 417.456 
L 489.312 337.6224 
L 194.688 337.6224 
z
" clip-path="url(#pd439475e3b)" style="fill: #3b82f6; opacity: 0.12; stroke: #1f2937; stroke-width: 1.6; stroke-linejoin: miter"/>
   </g>
   <g id="text_1">
    <!-- L2 Included (user-visible) -->
    <g style="fill: #0f172a" transform="translate(241.5675 50.092885) scale(0.14 -0.14)">
     <defs>
      <path id="DejaVuSans-Bold-4c" d="M 588 4666 
L 1791 4666 
L 1791 909 
L 3903 909 
L 3903 0 
L 588 0 
L 588 4666 
z
" transform="scale(0.015625)"/>
      <path id="DejaVuSans-Bold-32" d="M 1844 884 
L 3897 884 
L 3897 0 
L 506 0 
L 506 884 
L 2209 2388 
Q 2438 2594 2547 2791 
Q 2656 2988 2656 3200 
Q 2656 3528 2436 3728 
Q 2216 3928 1850 3928 
Q 1569 3928 1234 3808 
Q 900 3688 519 3450 
L 519 4475 
Q 925 4609 1322 4679 
Q 1719 4750 2100 4750 
Q 2938 4750 3402 4381 
Q 3866 4013 3866 3353 
Q 3866 2972 3669 2642 
Q 3472 2313 2841 1759 
L 1844 884 
z
" transform="scale(0.015625)"/>
      <path id="DejaVuSans-Bold-20" transform="scale(0.015625)"/>
      <path id="DejaVuSans-Bold-49" d="M 588 4666 
L 1791 4666 
L 1791 0 
L 588 0 
L 588 4666 
z
" transform="scale(0.015625)"/>
      <path id="DejaVuSans-Bold-6e" d="M 4056 2131 
L 4056 0 
L 2931 0 
L 2931 347 
L 2931 1631 
Q 2931 2084 2911 2256 
Q 2891 2428 2841 2509 
Q 2775 2619 2662 2680 
Q 2550 2741 2406 2741 
Q 2056 2741 1856 2470 
Q 1656 2200 1656 1722 
L 1656 0 
L 538 0 
L 538 3500 
L 1656 3500 
L 1656 2988 
Q 1909 3294 2193 3439 
Q 2478 3584 2822 3584 
Q 3428 3584 3742 3212 
Q 4056 2841 4056 2131 
z
" transform="scale(0.015625)"/>
      <path id="DejaVuSans-Bold-63" d="M 3366 3391 
L 3366 2478 
Q 3138 2634 2908 2709 
Q 2678 2784 2431 2784 
Q 1963 2784 1702 2511 
Q 1441 2238 1441 1747 
Q 1441 1256 1702 982 
Q 1963 709 2431 709 
Q 2694 709 2930 787 
Q 3166 866 3366 1019 
L 3366 103 
Q 3103 6 2833 -42 
Q 2563 -91 2291 -91 
Q 1344 -91 809 395 
Q 275 881 275 1747 
Q 275 2613 809 3098 
Q 1344 3584 2291 3584 
Q 2566 3584 2833 3536 
Q 3100 3488 3366 3391 
z
" transform="scale(0.015625)"/>
      <path id="DejaVuSans-Bold-6c" d="M 538 4863 
L 1656 4863 
L 1656 0 
L 538 0 
L 538 4863 
z
" transform="scale(0.015625)"/>
      <path id="DejaVuSans-Bold-75" d="M 500 1363 
L 500 3500 
L 1625 3500 
L 1625 3150 
Q 1625 2866 1622 2436 
Q 1619 2006 1619 1863 
Q 1619 1441 1641 1255 
Q 1663 1069 1716 984 
Q 1784 875 1895 815 
Q 2006 756 2150 756 
Q 2500 756 2700 1025 
Q 2900 1294 2900 1772 
L 2900 3500 
L 4019 3500 
L 4019 0 
L 2900 0 
L 2900 506 
Q 2647 200 2364 54 
Q 2081 -91 1741 -91 
Q 1134 -91 817 281 
Q 500 653 500 1363 
z
" transform="scale(0.015625)"/>
      <path id="DejaVuSans-Bold-64" d="M 2919 2988 
L 2919 4863 
L 4044 4863 
L 4044 0 
L 2919 0 
L 2919 506 
Q 2688 197 2409 53 
Q 2131 -91 1766 -91 
Q 1119 -91 703 423 
Q 288 938 288 1747 
Q 288 2556 703 3070 
Q 1119 3584 1766 3584 
Q 2128 3584 2408 3439 
Q 2688 3294 2919 2988 
z
M 2181 722 
Q 2541 722 2730 984 
Q 2919 1247 2919 1747 
Q 2919 2247 2730 2509 
Q 2541 2772 2181 2772 
Q 1825 2772 1636 2509 
Q 1447 2247 1447 1747 
Q 1447 1247 1636 984 
Q 1825 722 2181 722 
z
" transform="scale(0.015625)"/>
      <path id="DejaVuSans-Bold-65" d="M 4031 1759 
L 4031 1441 
L 1416 1441 
Q 1456 1047 1700 850 
Q 1944 653 2381 653 
Q 2734 653 3104 758 
Q 3475 863 3866 1075 
L 3866 213 
Q 3469 63 3072 -14 
Q 2675 -91 2278 -91 
Q 1328 -91 801 392 
Q 275 875 275 1747 
Q 275 2603 792 3093 
Q 1309 3584 2216 3584 
Q 3041 3584 3536 3087 
Q 4031 2591 4031 1759 
z
M 2881 2131 
Q 2881 2450 2695 2645 
Q 2509 2841 2209 2841 
Q 1884 2841 1681 2658 
Q 1478 2475 1428 2131 
L 2881 2131 
z
" transform="scale(0.015625)"/>
      <path id="DejaVuSans-Bold-28" d="M 2413 -844 
L 1484 -844 
Q 1006 -72 778 623 
Q 550 1319 550 2003 
Q 550 2688 779 3389 
Q 1009 4091 1484 4856 
L 2413 4856 
Q 2013 4116 1813 3408 
Q 1613 2700 1613 2009 
Q 1613 1319 1811 609 
Q 2009 -100 2413 -844 
z
" transform="scale(0.015625)"/>
      <path id="DejaVuSans-Bold-73" d="M 3272 3391 
L 3272 2541 
Q 2913 2691 2578 2766 
Q 2244 2841 1947 2841 
Q 1628 2841 1473 2761 
Q 1319 2681 1319 2516 
Q 1319 2381 1436 2309 
Q 1553 2238 1856 2203 
L 2053 2175 
Q 2913 2066 3209 1816 
Q 3506 1566 3506 1031 
Q 3506 472 3093 190 
Q 2681 -91 1863 -91 
Q 1516 -91 1145 -36 
Q 775 19 384 128 
L 384 978 
Q 719 816 1070 734 
Q 1422 653 1784 653 
Q 2113 653 2278 743 
Q 2444 834 2444 1013 
Q 2444 1163 2330 1236 
Q 2216 1309 1875 1350 
L 1678 1375 
Q 931 1469 631 1722 
Q 331 1975 331 2491 
Q 331 3047 712 3315 
Q 1094 3584 1881 3584 
Q 2191 3584 2531 3537 
Q 2872 3491 3272 3391 
z
" transform="scale(0.015625)"/>
      <path id="DejaVuSans-Bold-72" d="M 3138 2547 
Q 2991 2616 2845 2648 
Q 2700 2681 2553 2681 
Q 2122 2681 1889 2404 
Q 1656 2128 1656 1613 
L 1656 0 
L 538 0 
L 538 3500 
L 1656 3500 
L 1656 2925 
Q 1872 3269 2151 3426 
Q 2431 3584 2822 3584 
Q 2878 3584 2943 3579 
Q 3009 3575 3134 3559 
L 3138 2547 
z
" transform="scale(0.015625)"/>
      <path id="DejaVuSans-Bold-2d" d="M 347 2297 
L 2309 2297 
L 2309 1388 
L 347 1388 
L 347 2297 
z
" transform="scale(0.015625)"/>
      <path id="DejaVuSans-Bold-76" d="M 97 3500 
L 1216 3500 
L 2088 1081 
L 2956 3500 
L 4078 3500 
L 2700 0 
L 1472 0 
L 97 3500 
z
" transform="scale(0.015625)"/>
      <path id="DejaVuSans-Bold-69" d="M 538 3500 
L 1656 3500 
L 1656 0 
L 538 0 
L 538 3500 
z
M 538 4863 
L 1656 4863 
L 1656 3950 
L 538 3950 
L 538 4863 
z
" transform="scale(0.015625)"/>
      <path id="DejaVuSans-Bold-62" d="M 2400 722 
Q 2759 722 2948 984 
Q 3138 1247 3138 1747 
Q 3138 2247 2948 2509 
Q 2759 2772 2400 2772 
Q 2041 2772 1848 2508 
Q 1656 2244 1656 1747 
Q 1656 1250 1848 986 
Q 2041 722 2400 722 
z
M 1656 2988 
Q 1888 3294 2169 3439 
Q 2450 3584 2816 3584 
Q 3463 3584 3878 3070 
Q 4294 2556 4294 1747 
Q 4294 938 3878 423 
Q 3463 -91 2816 -91 
Q 2450 -91 2169 54 
Q 1888 200 1656 506 
L 1656 0 
L 538 0 
L 538 4863 
L 1656 4863 
L 1656 2988 
z
" transform="scale(0.015625)"/>
      <path id="DejaVuSans-Bold-29" d="M 513 -844 
Q 913 -100 1113 609 
Q 1313 1319 1313 2009 
Q 1313 2700 1113 3408 
Q 913 4116 513 4856 
L 1441 4856 
Q 1916 4091 2145 3389 
Q 2375 2688 2375 2003 
Q 2375 1319 2147 623 
Q 1919 -72 1441 -844 
L 513 -844 
z
" transform="scale(0.015625)"/>
     </defs>
     <use xlink:href="#DejaVuSans-Bold-4c"/>
     <use xlink:href="#DejaVuSans-Bold-32" transform="translate(63.720703 0)"/>
     <use xlink:href="#DejaVuSans-Bold-20" transform="translate(133.300781 0)"/>
     <use xlink:href="#DejaVuSans-Bold-49" transform="translate(168.115234 0)"/>
     <use xlink:href="#DejaVuSans-Bold-6e" transform="translate(205.322266 0)"/>
     <use xlink:href="#DejaVuSans-Bold-63" transform="translate(276.513672 0)"/>
     <use xlink:href="#DejaVuSans-Bold-6c" transform="translate(335.791016 0)"/>
     <use xlink:href="#DejaVuSans-Bold-75" transform="translate(370.068359 0)"/>
     <use xlink:href="#DejaVuSans-Bold-64" transform="translate(441.259766 0)"/>
     <use xlink:href="#DejaVuSans-Bold-65" transform="translate(512.841797 0)"/>
     <use xlink:href="#DejaVuSans-Bold-64" transform="translate(580.664062 0)"/>
     <use xlink:href="#DejaVuSans-Bold-20" transform="translate(652.246094 0)"/>
     <use xlink:href="#DejaVuSans-Bold-28" transform="translate(687.060547 0)"/>
     <use xlink:href="#DejaVuSans-Bold-75" transform="translate(732.763672 0)"/>
     <use xlink:href="#DejaVuSans-Bold-73" transform="translate(803.955078 0)"/>
     <use xlink:href="#DejaVuSans-Bold-65" transform="translate(863.476562 0)"/>
     <use xlink:href="#DejaVuSans-Bold-72" transform="translate(931.298828 0)"/>
     <use xlink:href="#DejaVuSans-Bold-2d" transform="translate(980.615234 0)"/>
     <use xlink:href="#DejaVuSans-Bold-76" transform="translate(1022.119141 0)"/>
     <use xlink:href="#DejaVuSans-Bold-69" transform="translate(1087.304688 0)"/>
     <use xlink:href="#DejaVuSans-Bold-73" transform="translate(1121.582031 0)"/>
     <use xlink:href="#DejaVuSans-Bold-69" transform="translate(1181.103516 0)"/>
     <use xlink:href="#DejaVuSans-Bold-62" transform="translate(1215.380859 0)"/>
     <use xlink:href="#DejaVuSans-Bold-6c" transform="translate(1286.962891 0)"/>
     <use xlink:href="#DejaVuSans-Bold-65" transform="translate(1321.240234 0)"/>
     <use xlink:href="#DejaVuSans-Bold-29" transform="translate(1389.0625 0)"/>
    </g>
   </g>
   <g id="text_2">
    <!-- Base: p50(B) = 2 s -->
    <g style="fill: #0f172a" transform="translate(294.939062 59.461871) scale(0.1 -0.1)">
     <defs>
      <path id="DejaVuSans-42" d="M 1259 2228 
L 1259 519 
L 2272 519 
Q 2781 519 3026 730 
Q 3272 941 3272 1375 
Q 3272 1813 3026 2020 
Q 2781 2228 2272 2228 
L 1259 2228 
z
M 1259 4147 
L 1259 2741 
L 2194 2741 
Q 2656 2741 2882 2914 
Q 3109 3088 3109 3444 
Q 3109 3797 2882 3972 
Q 2656 4147 2194 4147 
L 1259 4147 
z
M 628 4666 
L 2241 4666 
Q 2963 4666 3353 4366 
Q 3744 4066 3744 3513 
Q 3744 3084 3544 2831 
Q 3344 2578 2956 2516 
Q 3422 2416 3680 2098 
Q 3938 1781 3938 1306 
Q 3938 681 3513 340 
Q 3088 0 2303 0 
L 628 0 
L 628 4666 
z
" transform="scale(0.015625)"/>
      <path id="DejaVuSans-61" d="M 2194 1759 
Q 1497 1759 1228 1600 
Q 959 1441 959 1056 
Q 959 750 1161 570 
Q 1363 391 1709 391 
Q 2188 391 2477 730 
Q 2766 1069 2766 1631 
L 2766 1759 
L 2194 1759 
z
M 3341 1997 
L 3341 0 
L 2766 0 
L 2766 531 
Q 2569 213 2275 61 
Q 1981 -91 1556 -91 
Q 1019 -91 701 211 
Q 384 513 384 1019 
Q 384 1609 779 1909 
Q 1175 2209 1959 2209 
L 2766 2209 
L 2766 2266 
Q 2766 2663 2505 2880 
Q 2244 3097 1772 3097 
Q 1472 3097 1187 3025 
Q 903 2953 641 2809 
L 641 3341 
Q 956 3463 1253 3523 
Q 1550 3584 1831 3584 
Q 2591 3584 2966 3190 
Q 3341 2797 3341 1997 
z
" transform="scale(0.015625)"/>
      <path id="DejaVuSans-73" d="M 2834 3397 
L 2834 2853 
Q 2591 2978 2328 3040 
Q 2066 3103 1784 3103 
Q 1356 3103 1142 2972 
Q 928 2841 928 2578 
Q 928 2378 1081 2264 
Q 1234 2150 1697 2047 
L 1894 2003 
Q 2506 1872 2764 1633 
Q 3022 1394 3022 966 
Q 3022 478 2636 193 
Q 2250 -91 1575 -91 
Q 1294 -91 989 -36 
Q 684 19 347 128 
L 347 722 
Q 666 556 975 473 
Q 1284 391 1588 391 
Q 1994 391 2212 530 
Q 2431 669 2431 922 
Q 2431 1156 2273 1281 
Q 2116 1406 1581 1522 
L 1381 1569 
Q 847 1681 609 1914 
Q 372 2147 372 2553 
Q 372 3047 722 3315 
Q 1072 3584 1716 3584 
Q 2034 3584 2315 3537 
Q 2597 3491 2834 3397 
z
" transform="scale(0.015625)"/>
      <path id="DejaVuSans-65" d="M 3597 1894 
L 3597 1613 
L 953 1613 
Q 991 1019 1311 708 
Q 1631 397 2203 397 
Q 2534 397 2845 478 
Q 3156 559 3463 722 
L 3463 178 
Q 3153 47 2828 -22 
Q 2503 -91 2169 -91 
Q 1331 -91 842 396 
Q 353 884 353 1716 
Q 353 2575 817 3079 
Q 1281 3584 2069 3584 
Q 2775 3584 3186 3129 
Q 3597 2675 3597 1894 
z
M 3022 2063 
Q 3016 2534 2758 2815 
Q 2500 3097 2075 3097 
Q 1594 3097 1305 2825 
Q 1016 2553 972 2059 
L 3022 2063 
z
" transform="scale(0.015625)"/>
      <path id="DejaVuSans-3a" d="M 750 794 
L 1409 794 
L 1409 0 
L 750 0 
L 750 794 
z
M 750 3309 
L 1409 3309 
L 1409 2516 
L 750 2516 
L 750 3309 
z
" transform="scale(0.015625)"/>
      <path id="DejaVuSans-20" transform="scale(0.015625)"/>
      <path id="DejaVuSans-70" d="M 1159 525 
L 1159 -1331 
L 581 -1331 
L 581 3500 
L 1159 3500 
L 1159 2969 
Q 1341 3281 1617 3432 
Q 1894 3584 2278 3584 
Q 2916 3584 3314 3078 
Q 3713 2572 3713 1747 
Q 3713 922 3314 415 
Q 2916 -91 2278 -91 
Q 1894 -91 1617 61 
Q 1341 213 1159 525 
z
M 3116 1747 
Q 3116 2381 2855 2742 
Q 2594 3103 2138 3103 
Q 1681 3103 1420 2742 
Q 1159 2381 1159 1747 
Q 1159 1113 1420 752 
Q 1681 391 2138 391 
Q 2594 391 2855 752 
Q 3116 1113 3116 1747 
z
" transform="scale(0.015625)"/>
      <path id="DejaVuSans-35" d="M 691 4666 
L 3169 4666 
L 3169 4134 
L 1269 4134 
L 1269 2991 
Q 1406 3038 1543 3061 
Q 1681 3084 1819 3084 
Q 2600 3084 3056 2656 
Q 3513 2228 3513 1497 
Q 3513 744 3044 326 
Q 2575 -91 1722 -91 
Q 1428 -91 1123 -41 
Q 819 9 494 109 
L 494 744 
Q 775 591 1075 516 
Q 1375 441 1709 441 
Q 2250 441 2565 725 
Q 2881 1009 2881 1497 
Q 2881 1984 2565 2268 
Q 2250 2553 1709 2553 
Q 1456 2553 1204 2497 
Q 953 2441 691 2322 
L 691 4666 
z
" transform="scale(0.015625)"/>
      <path id="DejaVuSans-30" d="M 2034 4250 
Q 1547 4250 1301 3770 
Q 1056 3291 1056 2328 
Q 1056 1369 1301 889 
Q 1547 409 2034 409 
Q 2525 409 2770 889 
Q 3016 1369 3016 2328 
Q 3016 3291 2770 3770 
Q 2525 4250 2034 4250 
z
M 2034 4750 
Q 2819 4750 3233 4129 
Q 3647 3509 3647 2328 
Q 3647 1150 3233 529 
Q 2819 -91 2034 -91 
Q 1250 -91 836 529 
Q 422 1150 422 2328 
Q 422 3509 836 4129 
Q 1250 4750 2034 4750 
z
" transform="scale(0.015625)"/>
      <path id="DejaVuSans-28" d="M 1984 4856 
Q 1566 4138 1362 3434 
Q 1159 2731 1159 2009 
Q 1159 1288 1364 580 
Q 1569 -128 1984 -844 
L 1484 -844 
Q 1016 -109 783 600 
Q 550 1309 550 2009 
Q 550 2706 781 3412 
Q 1013 4119 1484 4856 
L 1984 4856 
z
" transform="scale(0.015625)"/>
      <path id="DejaVuSans-29" d="M 513 4856 
L 1013 4856 
Q 1481 4119 1714 3412 
Q 1947 2706 1947 2009 
Q 1947 1309 1714 600 
Q 1481 -109 1013 -844 
L 513 -844 
Q 928 -128 1133 580 
Q 1338 1288 1338 2009 
Q 1338 2731 1133 3434 
Q 928 4138 513 4856 
z
" transform="scale(0.015625)"/>
      <path id="DejaVuSans-3d" d="M 678 2906 
L 4684 2906 
L 4684 2381 
L 678 2381 
L 678 2906 
z
M 678 1631 
L 4684 1631 
L 4684 1100 
L 678 1100 
L 678 1631 
z
" transform="scale(0.015625)"/>
      <path id="DejaVuSans-32" d="M 1228 531 
L 3431 531 
L 3431 0 
L 469 0 
L 469 531 
Q 828 903 1448 1529 
Q 2069 2156 2228 2338 
Q 2531 2678 2651 2914 
Q 2772 3150 2772 3378 
Q 2772 3750 2511 3984 
Q 2250 4219 1831 4219 
Q 1534 4219 1204 4116 
Q 875 4013 500 3803 
L 500 4441 
Q 881 4594 1212 4672 
Q 1544 4750 1819 4750 
Q 2544 4750 2975 4387 
Q 3406 4025 3406 3419 
Q 3406 3131 3298 2873 
Q 3191 2616 2906 2266 
Q 2828 2175 2409 1742 
Q 1991 1309 1228 531 
z
" transform="scale(0.015625)"/>
     </defs>
     <use xlink:href="#DejaVuSans-42"/>
     <use xlink:href="#DejaVuSans-61" transform="translate(68.603516 0)"/>
     <use xlink:href="#DejaVuSans-73" transform="translate(129.882812 0)"/>
     <use xlink:href="#DejaVuSans-65" transform="translate(181.982422 0)"/>
     <use xlink:href="#DejaVuSans-3a" transform="translate(243.505859 0)"/>
     <use xlink:href="#DejaVuSans-20" transform="translate(277.197266 0)"/>
     <use xlink:href="#DejaVuSans-70" transform="translate(308.984375 0)"/>
     <use xlink:href="#DejaVuSans-35" transform="translate(372.460938 0)"/>
     <use xlink:href="#DejaVuSans-30" transform="translate(436.083984 0)"/>
     <use xlink:href="#DejaVuSans-28" transform="translate(499.707031 0)"/>
     <use xlink:href="#DejaVuSans-42" transform="translate(538.720703 0)"/>
     <use xlink:href="#DejaVuSans-29" transform="translate(607.324219 0)"/>
     <use xlink:href="#DejaVuSans-20" transform="translate(646.337891 0)"/>
     <use xlink:href="#DejaVuSans-3d" transform="translate(678.125 0)"/>
     <use xlink:href="#DejaVuSans-20" transform="translate(761.914062 0)"/>
     <use xlink:href="#DejaVuSans-32" transform="translate(793.701172 0)"/>
     <use xlink:href="#DejaVuSans-20" transform="translate(857.324219 0)"/>
     <use xlink:href="#DejaVuSans-73" transform="translate(889.111328 0)"/>
    </g>
    <!-- Optimism: p50(B) = 2 s -->
    <g style="fill: #0f172a" transform="translate(282.921094 72.939215) scale(0.1 -0.1)">
     <defs>
      <path id="DejaVuSans-4f" d="M 2522 4238 
Q 1834 4238 1429 3725 
Q 1025 3213 1025 2328 
Q 1025 1447 1429 934 
Q 1834 422 2522 422 
Q 3209 422 3611 934 
Q 4013 1447 4013 2328 
Q 4013 3213 3611 3725 
Q 3209 4238 2522 4238 
z
M 2522 4750 
Q 3503 4750 4090 4092 
Q 4678 3434 4678 2328 
Q 4678 1225 4090 567 
Q 3503 -91 2522 -91 
Q 1538 -91 948 565 
Q 359 1222 359 2328 
Q 359 3434 948 4092 
Q 1538 4750 2522 4750 
z
" transform="scale(0.015625)"/>
      <path id="DejaVuSans-74" d="M 1172 4494 
L 1172 3500 
L 2356 3500 
L 2356 3053 
L 1172 3053 
L 1172 1153 
Q 1172 725 1289 603 
Q 1406 481 1766 481 
L 2356 481 
L 2356 0 
L 1766 0 
Q 1100 0 847 248 
Q 594 497 594 1153 
L 594 3053 
L 172 3053 
L 172 3500 
L 594 3500 
L 594 4494 
L 1172 4494 
z
" transform="scale(0.015625)"/>
      <path id="DejaVuSans-69" d="M 603 3500 
L 1178 3500 
L 1178 0 
L 603 0 
L 603 3500 
z
M 603 4863 
L 1178 4863 
L 1178 4134 
L 603 4134 
L 603 4863 
z
" transform="scale(0.015625)"/>
      <path id="DejaVuSans-6d" d="M 3328 2828 
Q 3544 3216 3844 3400 
Q 4144 3584 4550 3584 
Q 5097 3584 5394 3201 
Q 5691 2819 5691 2113 
L 5691 0 
L 5113 0 
L 5113 2094 
Q 5113 2597 4934 2840 
Q 4756 3084 4391 3084 
Q 3944 3084 3684 2787 
Q 3425 2491 3425 1978 
L 3425 0 
L 2847 0 
L 2847 2094 
Q 2847 2600 2669 2842 
Q 2491 3084 2119 3084 
Q 1678 3084 1418 2786 
Q 1159 2488 1159 1978 
L 1159 0 
L 581 0 
L 581 3500 
L 1159 3500 
L 1159 2956 
Q 1356 3278 1631 3431 
Q 1906 3584 2284 3584 
Q 2666 3584 2933 3390 
Q 3200 3197 3328 2828 
z
" transform="scale(0.015625)"/>
     </defs>
     <use xlink:href="#DejaVuSans-4f"/>
     <use xlink:href="#DejaVuSans-70" transform="translate(78.710938 0)"/>
     <use xlink:href="#DejaVuSans-74" transform="translate(142.1875 0)"/>
     <use xlink:href="#DejaVuSans-69" transform="translate(181.396484 0)"/>
     <use xlink:href="#DejaVuSans-6d" transform="translate(209.179688 0)"/>
     <use xlink:href="#DejaVuSans-69" transform="translate(306.591797 0)"/>
     <use xlink:href="#DejaVuSans-73" transform="translate(334.375 0)"/>
     <use xlink:href="#DejaVuSans-6d" transform="translate(386.474609 0)"/>
     <use xlink:href="#DejaVuSans-3a" transform="translate(483.886719 0)"/>
     <use xlink:href="#DejaVuSans-20" transform="translate(517.578125 0)"/>
     <use xlink:href="#DejaVuSans-70" transform="translate(549.365234 0)"/>
     <use xlink:href="#DejaVuSans-35" transform="translate(612.841797 0)"/>
     <use xlink:href="#DejaVuSans-30" transform="translate(676.464844 0)"/>
     <use xlink:href="#DejaVuSans-28" transform="translate(740.087891 0)"/>
     <use xlink:href="#DejaVuSans-42" transform="translate(779.101562 0)"/>
     <use xlink:href="#DejaVuSans-29" transform="translate(847.705078 0)"/>
     <use xlink:href="#DejaVuSans-20" transform="translate(886.71875 0)"/>
     <use xlink:href="#DejaVuSans-3d" transform="translate(918.505859 0)"/>
     <use xlink:href="#DejaVuSans-20" transform="translate(1002.294922 0)"/>
     <use xlink:href="#DejaVuSans-32" transform="translate(1034.082031 0)"/>
     <use xlink:href="#DejaVuSans-20" transform="translate(1097.705078 0)"/>
     <use xlink:href="#DejaVuSans-73" transform="translate(1129.492188 0)"/>
    </g>
    <!-- Arbitrum: p50(B) = &lt;1 s -->
    <g style="fill: #0f172a" transform="translate(280.83125 86.416559) scale(0.1 -0.1)">
     <defs>
      <path id="DejaVuSans-41" d="M 2188 4044 
L 1331 1722 
L 3047 1722 
L 2188 4044 
z
M 1831 4666 
L 2547 4666 
L 4325 0 
L 3669 0 
L 3244 1197 
L 1141 1197 
L 716 0 
L 50 0 
L 1831 4666 
z
" transform="scale(0.015625)"/>
      <path id="DejaVuSans-72" d="M 2631 2963 
Q 2534 3019 2420 3045 
Q 2306 3072 2169 3072 
Q 1681 3072 1420 2755 
Q 1159 2438 1159 1844 
L 1159 0 
L 581 0 
L 581 3500 
L 1159 3500 
L 1159 2956 
Q 1341 3275 1631 3429 
Q 1922 3584 2338 3584 
Q 2397 3584 2469 3576 
Q 2541 3569 2628 3553 
L 2631 2963 
z
" transform="scale(0.015625)"/>
      <path id="DejaVuSans-62" d="M 3116 1747 
Q 3116 2381 2855 2742 
Q 2594 3103 2138 3103 
Q 1681 3103 1420 2742 
Q 1159 2381 1159 1747 
Q 1159 1113 1420 752 
Q 1681 391 2138 391 
Q 2594 391 2855 752 
Q 3116 1113 3116 1747 
z
M 1159 2969 
Q 1341 3281 1617 3432 
Q 1894 3584 2278 3584 
Q 2916 3584 3314 3078 
Q 3713 2572 3713 1747 
Q 3713 922 3314 415 
Q 2916 -91 2278 -91 
Q 1894 -91 1617 61 
Q 1341 213 1159 525 
L 1159 0 
L 581 0 
L 581 4863 
L 1159 4863 
L 1159 2969 
z
" transform="scale(0.015625)"/>
      <path id="DejaVuSans-75" d="M 544 1381 
L 544 3500 
L 1119 3500 
L 1119 1403 
Q 1119 906 1312 657 
Q 1506 409 1894 409 
Q 2359 409 2629 706 
Q 2900 1003 2900 1516 
L 2900 3500 
L 3475 3500 
L 3475 0 
L 2900 0 
L 2900 538 
Q 2691 219 2414 64 
Q 2138 -91 1772 -91 
Q 1169 -91 856 284 
Q 544 659 544 1381 
z
M 1991 3584 
L 1991 3584 
z
" transform="scale(0.015625)"/>
      <path id="DejaVuSans-3c" d="M 4684 3150 
L 1459 2003 
L 4684 863 
L 4684 294 
L 678 1747 
L 678 2266 
L 4684 3719 
L 4684 3150 
z
" transform="scale(0.015625)"/>
      <path id="DejaVuSans-31" d="M 794 531 
L 1825 531 
L 1825 4091 
L 703 3866 
L 703 4441 
L 1819 4666 
L 2450 4666 
L 2450 531 
L 3481 531 
L 3481 0 
L 794 0 
L 794 531 
z
" transform="scale(0.015625)"/>
     </defs>
     <use xlink:href="#DejaVuSans-41"/>
     <use xlink:href="#DejaVuSans-72" transform="translate(68.408203 0)"/>
     <use xlink:href="#DejaVuSans-62" transform="translate(109.521484 0)"/>
     <use xlink:href="#DejaVuSans-69" transform="translate(172.998047 0)"/>
     <use xlink:href="#DejaVuSans-74" transform="translate(200.78125 0)"/>
     <use xlink:href="#DejaVuSans-72" transform="translate(239.990234 0)"/>
     <use xlink:href="#DejaVuSans-75" transform="translate(281.103516 0)"/>
     <use xlink:href="#DejaVuSans-6d" transform="translate(344.482422 0)"/>
     <use xlink:href="#DejaVuSans-3a" transform="translate(441.894531 0)"/>
     <use xlink:href="#DejaVuSans-20" transform="translate(475.585938 0)"/>
     <use xlink:href="#DejaVuSans-70" transform="translate(507.373047 0)"/>
     <use xlink:href="#DejaVuSans-35" transform="translate(570.849609 0)"/>
     <use xlink:href="#DejaVuSans-30" transform="translate(634.472656 0)"/>
     <use xlink:href="#DejaVuSans-28" transform="translate(698.095703 0)"/>
     <use xlink:href="#DejaVuSans-42" transform="translate(737.109375 0)"/>
     <use xlink:href="#DejaVuSans-29" transform="translate(805.712891 0)"/>
     <use xlink:href="#DejaVuSans-20" transform="translate(844.726562 0)"/>
     <use xlink:href="#DejaVuSans-3d" transform="translate(876.513672 0)"/>
     <use xlink:href="#DejaVuSans-20" transform="translate(960.302734 0)"/>
     <use xlink:href="#DejaVuSans-3c" transform="translate(992.089844 0)"/>
     <use xlink:href="#DejaVuSans-31" transform="translate(1075.878906 0)"/>
     <use xlink:href="#DejaVuSans-20" transform="translate(1139.501953 0)"/>
     <use xlink:href="#DejaVuSans-73" transform="translate(1171.289062 0)"/>
    </g>
   </g>
   <g id="text_3">
    <!-- L2 Safe (data posted to L1) -->
    <g style="fill: #0f172a" transform="translate(234.148594 154.320085) scale(0.14 -0.14)">
     <defs>
      <path id="DejaVuSans-Bold-53" d="M 3834 4519 
L 3834 3531 
Q 3450 3703 3084 3790 
Q 2719 3878 2394 3878 
Q 1963 3878 1756 3759 
Q 1550 3641 1550 3391 
Q 1550 3203 1689 3098 
Q 1828 2994 2194 2919 
L 2706 2816 
Q 3484 2659 3812 2340 
Q 4141 2022 4141 1434 
Q 4141 663 3683 286 
Q 3225 -91 2284 -91 
Q 1841 -91 1394 -6 
Q 947 78 500 244 
L 500 1259 
Q 947 1022 1364 901 
Q 1781 781 2169 781 
Q 2563 781 2772 912 
Q 2981 1044 2981 1288 
Q 2981 1506 2839 1625 
Q 2697 1744 2272 1838 
L 1806 1941 
Q 1106 2091 782 2419 
Q 459 2747 459 3303 
Q 459 4000 909 4375 
Q 1359 4750 2203 4750 
Q 2588 4750 2994 4692 
Q 3400 4634 3834 4519 
z
" transform="scale(0.015625)"/>
      <path id="DejaVuSans-Bold-61" d="M 2106 1575 
Q 1756 1575 1579 1456 
Q 1403 1338 1403 1106 
Q 1403 894 1545 773 
Q 1688 653 1941 653 
Q 2256 653 2472 879 
Q 2688 1106 2688 1447 
L 2688 1575 
L 2106 1575 
z
M 3816 1997 
L 3816 0 
L 2688 0 
L 2688 519 
Q 2463 200 2181 54 
Q 1900 -91 1497 -91 
Q 953 -91 614 226 
Q 275 544 275 1050 
Q 275 1666 698 1953 
Q 1122 2241 2028 2241 
L 2688 2241 
L 2688 2328 
Q 2688 2594 2478 2717 
Q 2269 2841 1825 2841 
Q 1466 2841 1156 2769 
Q 847 2697 581 2553 
L 581 3406 
Q 941 3494 1303 3539 
Q 1666 3584 2028 3584 
Q 2975 3584 3395 3211 
Q 3816 2838 3816 1997 
z
" transform="scale(0.015625)"/>
      <path id="DejaVuSans-Bold-66" d="M 2841 4863 
L 2841 4128 
L 2222 4128 
Q 1984 4128 1890 4042 
Q 1797 3956 1797 3744 
L 1797 3500 
L 2753 3500 
L 2753 2700 
L 1797 2700 
L 1797 0 
L 678 0 
L 678 2700 
L 122 2700 
L 122 3500 
L 678 3500 
L 678 3744 
Q 678 4316 997 4589 
Q 1316 4863 1984 4863 
L 2841 4863 
z
" transform="scale(0.015625)"/>
      <path id="DejaVuSans-Bold-74" d="M 1759 4494 
L 1759 3500 
L 2913 3500 
L 2913 2700 
L 1759 2700 
L 1759 1216 
Q 1759 972 1856 886 
Q 1953 800 2241 800 
L 2816 800 
L 2816 0 
L 1856 0 
Q 1194 0 917 276 
Q 641 553 641 1216 
L 641 2700 
L 84 2700 
L 84 3500 
L 641 3500 
L 641 4494 
L 1759 4494 
z
" transform="scale(0.015625)"/>
      <path id="DejaVuSans-Bold-70" d="M 1656 506 
L 1656 -1331 
L 538 -1331 
L 538 3500 
L 1656 3500 
L 1656 2988 
Q 1888 3294 2169 3439 
Q 2450 3584 2816 3584 
Q 3463 3584 3878 3070 
Q 4294 2556 4294 1747 
Q 4294 938 3878 423 
Q 3463 -91 2816 -91 
Q 2450 -91 2169 54 
Q 1888 200 1656 506 
z
M 2400 2772 
Q 2041 2772 1848 2508 
Q 1656 2244 1656 1747 
Q 1656 1250 1848 986 
Q 2041 722 2400 722 
Q 2759 722 2948 984 
Q 3138 1247 3138 1747 
Q 3138 2247 2948 2509 
Q 2759 2772 2400 2772 
z
" transform="scale(0.015625)"/>
      <path id="DejaVuSans-Bold-6f" d="M 2203 2784 
Q 1831 2784 1636 2517 
Q 1441 2250 1441 1747 
Q 1441 1244 1636 976 
Q 1831 709 2203 709 
Q 2569 709 2762 976 
Q 2956 1244 2956 1747 
Q 2956 2250 2762 2517 
Q 2569 2784 2203 2784 
z
M 2203 3584 
Q 3106 3584 3614 3096 
Q 4122 2609 4122 1747 
Q 4122 884 3614 396 
Q 3106 -91 2203 -91 
Q 1297 -91 786 396 
Q 275 884 275 1747 
Q 275 2609 786 3096 
Q 1297 3584 2203 3584 
z
" transform="scale(0.015625)"/>
      <path id="DejaVuSans-Bold-31" d="M 750 831 
L 1813 831 
L 1813 3847 
L 722 3622 
L 722 4441 
L 1806 4666 
L 2950 4666 
L 2950 831 
L 4013 831 
L 4013 0 
L 750 0 
L 750 831 
z
" transform="scale(0.015625)"/>
     </defs>
     <use xlink:href="#DejaVuSans-Bold-4c"/>
     <use xlink:href="#DejaVuSans-Bold-32" transform="translate(63.720703 0)"/>
     <use xlink:href="#DejaVuSans-Bold-20" transform="translate(133.300781 0)"/>
     <use xlink:href="#DejaVuSans-Bold-53" transform="translate(168.115234 0)"/>
     <use xlink:href="#DejaVuSans-Bold-61" transform="translate(240.136719 0)"/>
     <use xlink:href="#DejaVuSans-Bold-66" transform="translate(307.617188 0)"/>
     <use xlink:href="#DejaVuSans-Bold-65" transform="translate(351.123047 0)"/>
     <use xlink:href="#DejaVuSans-Bold-20" transform="translate(418.945312 0)"/>
     <use xlink:href="#DejaVuSans-Bold-28" transform="translate(453.759766 0)"/>
     <use xlink:href="#DejaVuSans-Bold-64" transform="translate(499.462891 0)"/>
     <use xlink:href="#DejaVuSans-Bold-61" transform="translate(571.044922 0)"/>
     <use xlink:href="#DejaVuSans-Bold-74" transform="translate(638.525391 0)"/>
     <use xlink:href="#DejaVuSans-Bold-61" transform="translate(686.328125 0)"/>
     <use xlink:href="#DejaVuSans-Bold-20" transform="translate(753.808594 0)"/>
     <use xlink:href="#DejaVuSans-Bold-70" transform="translate(788.623047 0)"/>
     <use xlink:href="#DejaVuSans-Bold-6f" transform="translate(860.205078 0)"/>
     <use xlink:href="#DejaVuSans-Bold-73" transform="translate(928.90625 0)"/>
     <use xlink:href="#DejaVuSans-Bold-74" transform="translate(988.427734 0)"/>
     <use xlink:href="#DejaVuSans-Bold-65" transform="translate(1036.230469 0)"/>
     <use xlink:href="#DejaVuSans-Bold-64" transform="translate(1104.052734 0)"/>
     <use xlink:href="#DejaVuSans-Bold-20" transform="translate(1175.634766 0)"/>
     <use xlink:href="#DejaVuSans-Bold-74" transform="translate(1210.449219 0)"/>
     <use xlink:href="#DejaVuSans-Bold-6f" transform="translate(1258.251953 0)"/>
     <use xlink:href="#DejaVuSans-Bold-20" transform="translate(1326.953125 0)"/>
     <use xlink:href="#DejaVuSans-Bold-4c" transform="translate(1361.767578 0)"/>
     <use xlink:href="#DejaVuSans-Bold-31" transform="translate(1425.488281 0)"/>
     <use xlink:href="#DejaVuSans-Bold-29" transform="translate(1495.068359 0)"/>
    </g>
   </g>
   <g id="text_4">
    <!-- Begins once the posting transaction lands on Ethereum (batch available) -->
    <g style="fill: #0f172a" transform="translate(159.18125 177.166415) scale(0.1 -0.1)">
     <defs>
      <path id="DejaVuSans-67" d="M 2906 1791 
Q 2906 2416 2648 2759 
Q 2391 3103 1925 3103 
Q 1463 3103 1205 2759 
Q 947 2416 947 1791 
Q 947 1169 1205 825 
Q 1463 481 1925 481 
Q 2391 481 2648 825 
Q 2906 1169 2906 1791 
z
M 3481 434 
Q 3481 -459 3084 -895 
Q 2688 -1331 1869 -1331 
Q 1566 -1331 1297 -1286 
Q 1028 -1241 775 -1147 
L 775 -588 
Q 1028 -725 1275 -790 
Q 1522 -856 1778 -856 
Q 2344 -856 2625 -561 
Q 2906 -266 2906 331 
L 2906 616 
Q 2728 306 2450 153 
Q 2172 0 1784 0 
Q 1141 0 747 490 
Q 353 981 353 1791 
Q 353 2603 747 3093 
Q 1141 3584 1784 3584 
Q 2172 3584 2450 3431 
Q 2728 3278 2906 2969 
L 2906 3500 
L 3481 3500 
L 3481 434 
z
" transform="scale(0.015625)"/>
      <path id="DejaVuSans-6e" d="M 3513 2113 
L 3513 0 
L 2938 0 
L 2938 2094 
Q 2938 2591 2744 2837 
Q 2550 3084 2163 3084 
Q 1697 3084 1428 2787 
Q 1159 2491 1159 1978 
L 1159 0 
L 581 0 
L 581 3500 
L 1159 3500 
L 1159 2956 
Q 1366 3272 1645 3428 
Q 1925 3584 2291 3584 
Q 2894 3584 3203 3211 
Q 3513 2838 3513 2113 
z
" transform="scale(0.015625)"/>
      <path id="DejaVuSans-6f" d="M 1959 3097 
Q 1497 3097 1228 2736 
Q 959 2375 959 1747 
Q 959 1119 1226 758 
Q 1494 397 1959 397 
Q 2419 397 2687 759 
Q 2956 1122 2956 1747 
Q 2956 2369 2687 2733 
Q 2419 3097 1959 3097 
z
M 1959 3584 
Q 2709 3584 3137 3096 
Q 3566 2609 3566 1747 
Q 3566 888 3137 398 
Q 2709 -91 1959 -91 
Q 1206 -91 779 398 
Q 353 888 353 1747 
Q 353 2609 779 3096 
Q 1206 3584 1959 3584 
z
" transform="scale(0.015625)"/>
      <path id="DejaVuSans-63" d="M 3122 3366 
L 3122 2828 
Q 2878 2963 2633 3030 
Q 2388 3097 2138 3097 
Q 1578 3097 1268 2742 
Q 959 2388 959 1747 
Q 959 1106 1268 751 
Q 1578 397 2138 397 
Q 2388 397 2633 464 
Q 2878 531 3122 666 
L 3122 134 
Q 2881 22 2623 -34 
Q 2366 -91 2075 -91 
Q 1284 -91 818 406 
Q 353 903 353 1747 
Q 353 2603 823 3093 
Q 1294 3584 2113 3584 
Q 2378 3584 2631 3529 
Q 2884 3475 3122 3366 
z
" transform="scale(0.015625)"/>
      <path id="DejaVuSans-68" d="M 3513 2113 
L 3513 0 
L 2938 0 
L 2938 2094 
Q 2938 2591 2744 2837 
Q 2550 3084 2163 3084 
Q 1697 3084 1428 2787 
Q 1159 2491 1159 1978 
L 1159 0 
L 581 0 
L 581 4863 
L 1159 4863 
L 1159 2956 
Q 1366 3272 1645 3428 
Q 1925 3584 2291 3584 
Q 2894 3584 3203 3211 
Q 3513 2838 3513 2113 
z
" transform="scale(0.015625)"/>
      <path id="DejaVuSans-6c" d="M 603 4863 
L 1178 4863 
L 1178 0 
L 603 0 
L 603 4863 
z
" transform="scale(0.015625)"/>
      <path id="DejaVuSans-64" d="M 2906 2969 
L 2906 4863 
L 3481 4863 
L 3481 0 
L 2906 0 
L 2906 525 
Q 2725 213 2448 61 
Q 2172 -91 1784 -91 
Q 1150 -91 751 415 
Q 353 922 353 1747 
Q 353 2572 751 3078 
Q 1150 3584 1784 3584 
Q 2172 3584 2448 3432 
Q 2725 3281 2906 2969 
z
M 947 1747 
Q 947 1113 1208 752 
Q 1469 391 1925 391 
Q 2381 391 2643 752 
Q 2906 1113 2906 1747 
Q 2906 2381 2643 2742 
Q 2381 3103 1925 3103 
Q 1469 3103 1208 2742 
Q 947 2381 947 1747 
z
" transform="scale(0.015625)"/>
      <path id="DejaVuSans-45" d="M 628 4666 
L 3578 4666 
L 3578 4134 
L 1259 4134 
L 1259 2753 
L 3481 2753 
L 3481 2222 
L 1259 2222 
L 1259 531 
L 3634 531 
L 3634 0 
L 628 0 
L 628 4666 
z
" transform="scale(0.015625)"/>
      <path id="DejaVuSans-76" d="M 191 3500 
L 800 3500 
L 1894 563 
L 2988 3500 
L 3597 3500 
L 2284 0 
L 1503 0 
L 191 3500 
z
" transform="scale(0.015625)"/>
     </defs>
     <use xlink:href="#DejaVuSans-42"/>
     <use xlink:href="#DejaVuSans-65" transform="translate(68.603516 0)"/>
     <use xlink:href="#DejaVuSans-67" transform="translate(130.126953 0)"/>
     <use xlink:href="#DejaVuSans-69" transform="translate(193.603516 0)"/>
     <use xlink:href="#DejaVuSans-6e" transform="translate(221.386719 0)"/>
     <use xlink:href="#DejaVuSans-73" transform="translate(284.765625 0)"/>
     <use xlink:href="#DejaVuSans-20" transform="translate(336.865234 0)"/>
     <use xlink:href="#DejaVuSans-6f" transform="translate(368.652344 0)"/>
     <use xlink:href="#DejaVuSans-6e" transform="translate(429.833984 0)"/>
     <use xlink:href="#DejaVuSans-63" transform="translate(493.212891 0)"/>
     <use xlink:href="#DejaVuSans-65" transform="translate(548.193359 0)"/>
     <use xlink:href="#DejaVuSans-20" transform="translate(609.716797 0)"/>
     <use xlink:href="#DejaVuSans-74" transform="translate(641.503906 0)"/>
     <use xlink:href="#DejaVuSans-68" transform="translate(680.712891 0)"/>
     <use xlink:href="#DejaVuSans-65" transform="translate(744.091797 0)"/>
     <use xlink:href="#DejaVuSans-20" transform="translate(805.615234 0)"/>
     <use xlink:href="#DejaVuSans-70" transform="translate(837.402344 0)"/>
     <use xlink:href="#DejaVuSans-6f" transform="translate(900.878906 0)"/>
     <use xlink:href="#DejaVuSans-73" transform="translate(962.060547 0)"/>
     <use xlink:href="#DejaVuSans-74" transform="translate(1014.160156 0)"/>
     <use xlink:href="#DejaVuSans-69" transform="translate(1053.369141 0)"/>
     <use xlink:href="#DejaVuSans-6e" transform="translate(1081.152344 0)"/>
     <use xlink:href="#DejaVuSans-67" transform="translate(1144.53125 0)"/>
     <use xlink:href="#DejaVuSans-20" transform="translate(1208.007812 0)"/>
     <use xlink:href="#DejaVuSans-74" transform="translate(1239.794922 0)"/>
     <use xlink:href="#DejaVuSans-72" transform="translate(1279.003906 0)"/>
     <use xlink:href="#DejaVuSans-61" transform="translate(1320.117188 0)"/>
     <use xlink:href="#DejaVuSans-6e" transform="translate(1381.396484 0)"/>
     <use xlink:href="#DejaVuSans-73" transform="translate(1444.775391 0)"/>
     <use xlink:href="#DejaVuSans-61" transform="translate(1496.875 0)"/>
     <use xlink:href="#DejaVuSans-63" transform="translate(1558.154297 0)"/>
     <use xlink:href="#DejaVuSans-74" transform="translate(1613.134766 0)"/>
     <use xlink:href="#DejaVuSans-69" transform="translate(1652.34375 0)"/>
     <use xlink:href="#DejaVuSans-6f" transform="translate(1680.126953 0)"/>
     <use xlink:href="#DejaVuSans-6e" transform="translate(1741.308594 0)"/>
     <use xlink:href="#DejaVuSans-20" transform="translate(1804.6875 0)"/>
     <use xlink:href="#DejaVuSans-6c" transform="translate(1836.474609 0)"/>
     <use xlink:href="#DejaVuSans-61" transform="translate(1864.257812 0)"/>
     <use xlink:href="#DejaVuSans-6e" transform="translate(1925.537109 0)"/>
     <use xlink:href="#DejaVuSans-64" transform="translate(1988.916016 0)"/>
     <use xlink:href="#DejaVuSans-73" transform="translate(2052.392578 0)"/>
     <use xlink:href="#DejaVuSans-20" transform="translate(2104.492188 0)"/>
     <use xlink:href="#DejaVuSans-6f" transform="translate(2136.279297 0)"/>
     <use xlink:href="#DejaVuSans-6e" transform="translate(2197.460938 0)"/>
     <use xlink:href="#DejaVuSans-20" transform="translate(2260.839844 0)"/>
     <use xlink:href="#DejaVuSans-45" transform="translate(2292.626953 0)"/>
     <use xlink:href="#DejaVuSans-74" transform="translate(2355.810547 0)"/>
     <use xlink:href="#DejaVuSans-68" transform="translate(2395.019531 0)"/>
     <use xlink:href="#DejaVuSans-65" transform="translate(2458.398438 0)"/>
     <use xlink:href="#DejaVuSans-72" transform="translate(2519.921875 0)"/>
     <use xlink:href="#DejaVuSans-65" transform="translate(2558.785156 0)"/>
     <use xlink:href="#DejaVuSans-75" transform="translate(2620.308594 0)"/>
     <use xlink:href="#DejaVuSans-6d" transform="translate(2683.6875 0)"/>
     <use xlink:href="#DejaVuSans-20" transform="translate(2781.099609 0)"/>
     <use xlink:href="#DejaVuSans-28" transform="translate(2812.886719 0)"/>
     <use xlink:href="#DejaVuSans-62" transform="translate(2851.900391 0)"/>
     <use xlink:href="#DejaVuSans-61" transform="translate(2915.376953 0)"/>
     <use xlink:href="#DejaVuSans-74" transform="translate(2976.65625 0)"/>
     <use xlink:href="#DejaVuSans-63" transform="translate(3015.865234 0)"/>
     <use xlink:href="#DejaVuSans-68" transform="translate(3070.845703 0)"/>
     <use xlink:href="#DejaVuSans-20" transform="translate(3134.224609 0)"/>
     <use xlink:href="#DejaVuSans-61" transform="translate(3166.011719 0)"/>
     <use xlink:href="#DejaVuSans-76" transform="translate(3227.291016 0)"/>
     <use xlink:href="#DejaVuSans-61" transform="translate(3286.470703 0)"/>
     <use xlink:href="#DejaVuSans-69" transform="translate(3347.75 0)"/>
     <use xlink:href="#DejaVuSans-6c" transform="translate(3375.533203 0)"/>
     <use xlink:href="#DejaVuSans-61" transform="translate(3403.316406 0)"/>
     <use xlink:href="#DejaVuSans-62" transform="translate(3464.595703 0)"/>
     <use xlink:href="#DejaVuSans-6c" transform="translate(3528.072266 0)"/>
     <use xlink:href="#DejaVuSans-65" transform="translate(3555.855469 0)"/>
     <use xlink:href="#DejaVuSans-29" transform="translate(3617.378906 0)"/>
    </g>
   </g>
   <g id="text_5">
    <!-- L1 Posted (anchored on L1) -->
    <g style="fill: #0f172a" transform="translate(233.330469 258.547285) scale(0.14 -0.14)">
     <defs>
      <path id="DejaVuSans-Bold-50" d="M 588 4666 
L 2584 4666 
Q 3475 4666 3951 4270 
Q 4428 3875 4428 3144 
Q 4428 2409 3951 2014 
Q 3475 1619 2584 1619 
L 1791 1619 
L 1791 0 
L 588 0 
L 588 4666 
z
M 1791 3794 
L 1791 2491 
L 2456 2491 
Q 2806 2491 2997 2661 
Q 3188 2831 3188 3144 
Q 3188 3456 2997 3625 
Q 2806 3794 2456 3794 
L 1791 3794 
z
" transform="scale(0.015625)"/>
      <path id="DejaVuSans-Bold-68" d="M 4056 2131 
L 4056 0 
L 2931 0 
L 2931 347 
L 2931 1625 
Q 2931 2084 2911 2256 
Q 2891 2428 2841 2509 
Q 2775 2619 2662 2680 
Q 2550 2741 2406 2741 
Q 2056 2741 1856 2470 
Q 1656 2200 1656 1722 
L 1656 0 
L 538 0 
L 538 4863 
L 1656 4863 
L 1656 2988 
Q 1909 3294 2193 3439 
Q 2478 3584 2822 3584 
Q 3428 3584 3742 3212 
Q 4056 2841 4056 2131 
z
" transform="scale(0.015625)"/>
     </defs>
     <use xlink:href="#DejaVuSans-Bold-4c"/>
     <use xlink:href="#DejaVuSans-Bold-31" transform="translate(63.720703 0)"/>
     <use xlink:href="#DejaVuSans-Bold-20" transform="translate(133.300781 0)"/>
     <use xlink:href="#DejaVuSans-Bold-50" transform="translate(168.115234 0)"/>
     <use xlink:href="#DejaVuSans-Bold-6f" transform="translate(241.40625 0)"/>
     <use xlink:href="#DejaVuSans-Bold-73" transform="translate(310.107422 0)"/>
     <use xlink:href="#DejaVuSans-Bold-74" transform="translate(369.628906 0)"/>
     <use xlink:href="#DejaVuSans-Bold-65" transform="translate(417.431641 0)"/>
     <use xlink:href="#DejaVuSans-Bold-64" transform="translate(485.253906 0)"/>
     <use xlink:href="#DejaVuSans-Bold-20" transform="translate(556.835938 0)"/>
     <use xlink:href="#DejaVuSans-Bold-28" transform="translate(591.650391 0)"/>
     <use xlink:href="#DejaVuSans-Bold-61" transform="translate(637.353516 0)"/>
     <use xlink:href="#DejaVuSans-Bold-6e" transform="translate(704.833984 0)"/>
     <use xlink:href="#DejaVuSans-Bold-63" transform="translate(776.025391 0)"/>
     <use xlink:href="#DejaVuSans-Bold-68" transform="translate(835.302734 0)"/>
     <use xlink:href="#DejaVuSans-Bold-6f" transform="translate(906.494141 0)"/>
     <use xlink:href="#DejaVuSans-Bold-72" transform="translate(975.195312 0)"/>
     <use xlink:href="#DejaVuSans-Bold-65" transform="translate(1024.511719 0)"/>
     <use xlink:href="#DejaVuSans-Bold-64" transform="translate(1092.333984 0)"/>
     <use xlink:href="#DejaVuSans-Bold-20" transform="translate(1163.916016 0)"/>
     <use xlink:href="#DejaVuSans-Bold-6f" transform="translate(1198.730469 0)"/>
     <use xlink:href="#DejaVuSans-Bold-6e" transform="translate(1267.431641 0)"/>
     <use xlink:href="#DejaVuSans-Bold-20" transform="translate(1338.623047 0)"/>
     <use xlink:href="#DejaVuSans-Bold-4c" transform="translate(1373.4375 0)"/>
     <use xlink:href="#DejaVuSans-Bold-31" transform="translate(1437.158203 0)"/>
     <use xlink:href="#DejaVuSans-Bold-29" transform="translate(1506.738281 0)"/>
    </g>
   </g>
   <g id="text_6">
    <!-- Base: p50(C) = TBD -->
    <g style="fill: #0f172a" transform="translate(291.91875 267.916271) scale(0.1 -0.1)">
     <defs>
      <path id="DejaVuSans-43" d="M 4122 4306 
L 4122 3641 
Q 3803 3938 3442 4084 
Q 3081 4231 2675 4231 
Q 1875 4231 1450 3742 
Q 1025 3253 1025 2328 
Q 1025 1406 1450 917 
Q 1875 428 2675 428 
Q 3081 428 3442 575 
Q 3803 722 4122 1019 
L 4122 359 
Q 3791 134 3420 21 
Q 3050 -91 2638 -91 
Q 1578 -91 968 557 
Q 359 1206 359 2328 
Q 359 3453 968 4101 
Q 1578 4750 2638 4750 
Q 3056 4750 3426 4639 
Q 3797 4528 4122 4306 
z
" transform="scale(0.015625)"/>
      <path id="DejaVuSans-54" d="M -19 4666 
L 3928 4666 
L 3928 4134 
L 2272 4134 
L 2272 0 
L 1638 0 
L 1638 4134 
L -19 4134 
L -19 4666 
z
" transform="scale(0.015625)"/>
      <path id="DejaVuSans-44" d="M 1259 4147 
L 1259 519 
L 2022 519 
Q 2988 519 3436 956 
Q 3884 1394 3884 2338 
Q 3884 3275 3436 3711 
Q 2988 4147 2022 4147 
L 1259 4147 
z
M 628 4666 
L 1925 4666 
Q 3281 4666 3915 4102 
Q 4550 3538 4550 2338 
Q 4550 1131 3912 565 
Q 3275 0 1925 0 
L 628 0 
L 628 4666 
z
" transform="scale(0.015625)"/>
     </defs>
     <use xlink:href="#DejaVuSans-42"/>
     <use xlink:href="#DejaVuSans-61" transform="translate(68.603516 0)"/>
     <use xlink:href="#DejaVuSans-73" transform="translate(129.882812 0)"/>
     <use xlink:href="#DejaVuSans-65" transform="translate(181.982422 0)"/>
     <use xlink:href="#DejaVuSans-3a" transform="translate(243.505859 0)"/>
     <use xlink:href="#DejaVuSans-20" transform="translate(277.197266 0)"/>
     <use xlink:href="#DejaVuSans-70" transform="translate(308.984375 0)"/>
     <use xlink:href="#DejaVuSans-35" transform="translate(372.460938 0)"/>
     <use xlink:href="#DejaVuSans-30" transform="translate(436.083984 0)"/>
     <use xlink:href="#DejaVuSans-28" transform="translate(499.707031 0)"/>
     <use xlink:href="#DejaVuSans-43" transform="translate(538.720703 0)"/>
     <use xlink:href="#DejaVuSans-29" transform="translate(608.544922 0)"/>
     <use xlink:href="#DejaVuSans-20" transform="translate(647.558594 0)"/>
     <use xlink:href="#DejaVuSans-3d" transform="translate(679.345703 0)"/>
     <use xlink:href="#DejaVuSans-20" transform="translate(763.134766 0)"/>
     <use xlink:href="#DejaVuSans-54" transform="translate(794.921875 0)"/>
     <use xlink:href="#DejaVuSans-42" transform="translate(856.005859 0)"/>
     <use xlink:href="#DejaVuSans-44" transform="translate(924.609375 0)"/>
    </g>
    <!-- Optimism: p50(C) = 208 s -->
    <g style="fill: #0f172a" transform="translate(276.497656 281.393615) scale(0.1 -0.1)">
     <defs>
      <path id="DejaVuSans-38" d="M 2034 2216 
Q 1584 2216 1326 1975 
Q 1069 1734 1069 1313 
Q 1069 891 1326 650 
Q 1584 409 2034 409 
Q 2484 409 2743 651 
Q 3003 894 3003 1313 
Q 3003 1734 2745 1975 
Q 2488 2216 2034 2216 
z
M 1403 2484 
Q 997 2584 770 2862 
Q 544 3141 544 3541 
Q 544 4100 942 4425 
Q 1341 4750 2034 4750 
Q 2731 4750 3128 4425 
Q 3525 4100 3525 3541 
Q 3525 3141 3298 2862 
Q 3072 2584 2669 2484 
Q 3125 2378 3379 2068 
Q 3634 1759 3634 1313 
Q 3634 634 3220 271 
Q 2806 -91 2034 -91 
Q 1263 -91 848 271 
Q 434 634 434 1313 
Q 434 1759 690 2068 
Q 947 2378 1403 2484 
z
M 1172 3481 
Q 1172 3119 1398 2916 
Q 1625 2713 2034 2713 
Q 2441 2713 2670 2916 
Q 2900 3119 2900 3481 
Q 2900 3844 2670 4047 
Q 2441 4250 2034 4250 
Q 1625 4250 1398 4047 
Q 1172 3844 1172 3481 
z
" transform="scale(0.015625)"/>
     </defs>
     <use xlink:href="#DejaVuSans-4f"/>
     <use xlink:href="#DejaVuSans-70" transform="translate(78.710938 0)"/>
     <use xlink:href="#DejaVuSans-74" transform="translate(142.1875 0)"/>
     <use xlink:href="#DejaVuSans-69" transform="translate(181.396484 0)"/>
     <use xlink:href="#DejaVuSans-6d" transform="translate(209.179688 0)"/>
     <use xlink:href="#DejaVuSans-69" transform="translate(306.591797 0)"/>
     <use xlink:href="#DejaVuSans-73" transform="translate(334.375 0)"/>
     <use xlink:href="#DejaVuSans-6d" transform="translate(386.474609 0)"/>
     <use xlink:href="#DejaVuSans-3a" transform="translate(483.886719 0)"/>
     <use xlink:href="#DejaVuSans-20" transform="translate(517.578125 0)"/>
     <use xlink:href="#DejaVuSans-70" transform="translate(549.365234 0)"/>
     <use xlink:href="#DejaVuSans-35" transform="translate(612.841797 0)"/>
     <use xlink:href="#DejaVuSans-30" transform="translate(676.464844 0)"/>
     <use xlink:href="#DejaVuSans-28" transform="translate(740.087891 0)"/>
     <use xlink:href="#DejaVuSans-43" transform="translate(779.101562 0)"/>
     <use xlink:href="#DejaVuSans-29" transform="translate(848.925781 0)"/>
     <use xlink:href="#DejaVuSans-20" transform="translate(887.939453 0)"/>
     <use xlink:href="#DejaVuSans-3d" transform="translate(919.726562 0)"/>
     <use xlink:href="#DejaVuSans-20" transform="translate(1003.515625 0)"/>
     <use xlink:href="#DejaVuSans-32" transform="translate(1035.302734 0)"/>
     <use xlink:href="#DejaVuSans-30" transform="translate(1098.925781 0)"/>
     <use xlink:href="#DejaVuSans-38" transform="translate(1162.548828 0)"/>
     <use xlink:href="#DejaVuSans-20" transform="translate(1226.171875 0)"/>
     <use xlink:href="#DejaVuSans-73" transform="translate(1257.958984 0)"/>
    </g>
    <!-- Arbitrum: p50(C) = TBD -->
    <g style="fill: #0f172a" transform="translate(282.000781 294.870959) scale(0.1 -0.1)">
     <use xlink:href="#DejaVuSans-41"/>
     <use xlink:href="#DejaVuSans-72" transform="translate(68.408203 0)"/>
     <use xlink:href="#DejaVuSans-62" transform="translate(109.521484 0)"/>
     <use xlink:href="#DejaVuSans-69" transform="translate(172.998047 0)"/>
     <use xlink:href="#DejaVuSans-74" transform="translate(200.78125 0)"/>
     <use xlink:href="#DejaVuSans-72" transform="translate(239.990234 0)"/>
     <use xlink:href="#DejaVuSans-75" transform="translate(281.103516 0)"/>
     <use xlink:href="#DejaVuSans-6d" transform="translate(344.482422 0)"/>
     <use xlink:href="#DejaVuSans-3a" transform="translate(441.894531 0)"/>
     <use xlink:href="#DejaVuSans-20" transform="translate(475.585938 0)"/>
     <use xlink:href="#DejaVuSans-70" transform="translate(507.373047 0)"/>
     <use xlink:href="#DejaVuSans-35" transform="translate(570.849609 0)"/>
     <use xlink:href="#DejaVuSans-30" transform="translate(634.472656 0)"/>
     <use xlink:href="#DejaVuSans-28" transform="translate(698.095703 0)"/>
     <use xlink:href="#DejaVuSans-43" transform="translate(737.109375 0)"/>
     <use xlink:href="#DejaVuSans-29" transform="translate(806.933594 0)"/>
     <use xlink:href="#DejaVuSans-20" transform="translate(845.947266 0)"/>
     <use xlink:href="#DejaVuSans-3d" transform="translate(877.734375 0)"/>
     <use xlink:href="#DejaVuSans-20" transform="translate(961.523438 0)"/>
     <use xlink:href="#DejaVuSans-54" transform="translate(993.310547 0)"/>
     <use xlink:href="#DejaVuSans-42" transform="translate(1054.394531 0)"/>
     <use xlink:href="#DejaVuSans-44" transform="translate(1122.998047 0)"/>
    </g>
   </g>
   <g id="text_7">
    <!-- L1 Final (withdrawable) -->
    <g style="fill: #0f172a" transform="translate(248.377187 362.774485) scale(0.14 -0.14)">
     <defs>
      <path id="DejaVuSans-Bold-46" d="M 588 4666 
L 3834 4666 
L 3834 3756 
L 1791 3756 
L 1791 2888 
L 3713 2888 
L 3713 1978 
L 1791 1978 
L 1791 0 
L 588 0 
L 588 4666 
z
" transform="scale(0.015625)"/>
      <path id="DejaVuSans-Bold-77" d="M 225 3500 
L 1313 3500 
L 1900 1088 
L 2491 3500 
L 3425 3500 
L 4013 1113 
L 4603 3500 
L 5691 3500 
L 4769 0 
L 3547 0 
L 2956 2406 
L 2369 0 
L 1147 0 
L 225 3500 
z
" transform="scale(0.015625)"/>
     </defs>
     <use xlink:href="#DejaVuSans-Bold-4c"/>
     <use xlink:href="#DejaVuSans-Bold-31" transform="translate(63.720703 0)"/>
     <use xlink:href="#DejaVuSans-Bold-20" transform="translate(133.300781 0)"/>
     <use xlink:href="#DejaVuSans-Bold-46" transform="translate(168.115234 0)"/>
     <use xlink:href="#DejaVuSans-Bold-69" transform="translate(236.425781 0)"/>
     <use xlink:href="#DejaVuSans-Bold-6e" transform="translate(270.703125 0)"/>
     <use xlink:href="#DejaVuSans-Bold-61" transform="translate(341.894531 0)"/>
     <use xlink:href="#DejaVuSans-Bold-6c" transform="translate(409.375 0)"/>
     <use xlink:href="#DejaVuSans-Bold-20" transform="translate(443.652344 0)"/>
     <use xlink:href="#DejaVuSans-Bold-28" transform="translate(478.466797 0)"/>
     <use xlink:href="#DejaVuSans-Bold-77" transform="translate(524.169922 0)"/>
     <use xlink:href="#DejaVuSans-Bold-69" transform="translate(616.552734 0)"/>
     <use xlink:href="#DejaVuSans-Bold-74" transform="translate(650.830078 0)"/>
     <use xlink:href="#DejaVuSans-Bold-68" transform="translate(698.632812 0)"/>
     <use xlink:href="#DejaVuSans-Bold-64" transform="translate(769.824219 0)"/>
     <use xlink:href="#DejaVuSans-Bold-72" transform="translate(841.40625 0)"/>
     <use xlink:href="#DejaVuSans-Bold-61" transform="translate(890.722656 0)"/>
     <use xlink:href="#DejaVuSans-Bold-77" transform="translate(958.203125 0)"/>
     <use xlink:href="#DejaVuSans-Bold-61" transform="translate(1050.585938 0)"/>
     <use xlink:href="#DejaVuSans-Bold-62" transform="translate(1118.066406 0)"/>
     <use xlink:href="#DejaVuSans-Bold-6c" transform="translate(1189.648438 0)"/>
     <use xlink:href="#DejaVuSans-Bold-65" transform="translate(1223.925781 0)"/>
     <use xlink:href="#DejaVuSans-Bold-29" transform="translate(1291.748047 0)"/>
    </g>
   </g>
   <g id="text_8">
    <!-- Base:  7 days -->
    <g style="fill: #0f172a" transform="translate(304.199219 372.143471) scale(0.1 -0.1)">
     <defs>
      <path id="DejaVuSans-2248" d="M 4684 1947 
L 4684 1388 
Q 4356 1144 4076 1036 
Q 3797 928 3494 928 
Q 3150 928 2694 1113 
Q 2663 1125 2641 1134 
Q 2622 1141 2575 1159 
Q 2091 1350 1797 1350 
Q 1522 1350 1253 1231 
Q 984 1113 678 850 
L 678 1409 
Q 1006 1653 1286 1761 
Q 1566 1869 1869 1869 
Q 2213 1869 2672 1684 
Q 2706 1669 2722 1663 
Q 2741 1656 2788 1638 
Q 3272 1447 3566 1447 
Q 3834 1447 4098 1564 
Q 4363 1681 4684 1947 
z
M 4684 3163 
L 4684 2606 
Q 4356 2359 4076 2251 
Q 3797 2144 3494 2144 
Q 3150 2144 2694 2328 
Q 2663 2341 2641 2350 
Q 2622 2356 2575 2375 
Q 2091 2566 1797 2566 
Q 1522 2566 1253 2447 
Q 984 2328 678 2069 
L 678 2625 
Q 1006 2869 1286 2976 
Q 1566 3084 1869 3084 
Q 2213 3084 2672 2900 
Q 2703 2888 2719 2881 
Q 2741 2872 2788 2853 
Q 3272 2663 3566 2663 
Q 3834 2663 4098 2780 
Q 4363 2897 4684 3163 
z
" transform="scale(0.015625)"/>
      <path id="DejaVuSans-37" d="M 525 4666 
L 3525 4666 
L 3525 4397 
L 1831 0 
L 1172 0 
L 2766 4134 
L 525 4134 
L 525 4666 
z
" transform="scale(0.015625)"/>
      <path id="DejaVuSans-79" d="M 2059 -325 
Q 1816 -950 1584 -1140 
Q 1353 -1331 966 -1331 
L 506 -1331 
L 506 -850 
L 844 -850 
Q 1081 -850 1212 -737 
Q 1344 -625 1503 -206 
L 1606 56 
L 191 3500 
L 800 3500 
L 1894 763 
L 2988 3500 
L 3597 3500 
L 2059 -325 
z
" transform="scale(0.015625)"/>
     </defs>
     <use xlink:href="#DejaVuSans-42"/>
     <use xlink:href="#DejaVuSans-61" transform="translate(68.603516 0)"/>
     <use xlink:href="#DejaVuSans-73" transform="translate(129.882812 0)"/>
     <use xlink:href="#DejaVuSans-65" transform="translate(181.982422 0)"/>
     <use xlink:href="#DejaVuSans-3a" transform="translate(243.505859 0)"/>
     <use xlink:href="#DejaVuSans-20" transform="translate(277.197266 0)"/>
     <use xlink:href="#DejaVuSans-2248" transform="translate(308.984375 0)"/>
     <use xlink:href="#DejaVuSans-20" transform="translate(392.773438 0)"/>
     <use xlink:href="#DejaVuSans-37" transform="translate(424.560547 0)"/>
     <use xlink:href="#DejaVuSans-20" transform="translate(488.183594 0)"/>
     <use xlink:href="#DejaVuSans-64" transform="translate(519.970703 0)"/>
     <use xlink:href="#DejaVuSans-61" transform="translate(583.447266 0)"/>
     <use xlink:href="#DejaVuSans-79" transform="translate(644.726562 0)"/>
     <use xlink:href="#DejaVuSans-73" transform="translate(703.90625 0)"/>
    </g>
    <!-- Optimism:  7 days -->
    <g style="fill: #0f172a" transform="translate(292.18125 385.620815) scale(0.1 -0.1)">
     <use xlink:href="#DejaVuSans-4f"/>
     <use xlink:href="#DejaVuSans-70" transform="translate(78.710938 0)"/>
     <use xlink:href="#DejaVuSans-74" transform="translate(142.1875 0)"/>
     <use xlink:href="#DejaVuSans-69" transform="translate(181.396484 0)"/>
     <use xlink:href="#DejaVuSans-6d" transform="translate(209.179688 0)"/>
     <use xlink:href="#DejaVuSans-69" transform="translate(306.591797 0)"/>
     <use xlink:href="#DejaVuSans-73" transform="translate(334.375 0)"/>
     <use xlink:href="#DejaVuSans-6d" transform="translate(386.474609 0)"/>
     <use xlink:href="#DejaVuSans-3a" transform="translate(483.886719 0)"/>
     <use xlink:href="#DejaVuSans-20" transform="translate(517.578125 0)"/>
     <use xlink:href="#DejaVuSans-2248" transform="translate(549.365234 0)"/>
     <use xlink:href="#DejaVuSans-20" transform="translate(633.154297 0)"/>
     <use xlink:href="#DejaVuSans-37" transform="translate(664.941406 0)"/>
     <use xlink:href="#DejaVuSans-20" transform="translate(728.564453 0)"/>
     <use xlink:href="#DejaVuSans-64" transform="translate(760.351562 0)"/>
     <use xlink:href="#DejaVuSans-61" transform="translate(823.828125 0)"/>
     <use xlink:href="#DejaVuSans-79" transform="translate(885.107422 0)"/>
     <use xlink:href="#DejaVuSans-73" transform="translate(944.287109 0)"/>
    </g>
    <!-- Arbitrum:  7 days -->
    <g style="fill: #0f172a" transform="translate(294.28125 399.098159) scale(0.1 -0.1)">
     <use xlink:href="#DejaVuSans-41"/>
     <use xlink:href="#DejaVuSans-72" transform="translate(68.408203 0)"/>
     <use xlink:href="#DejaVuSans-62" transform="translate(109.521484 0)"/>
     <use xlink:href="#DejaVuSans-69" transform="translate(172.998047 0)"/>
     <use xlink:href="#DejaVuSans-74" transform="translate(200.78125 0)"/>
     <use xlink:href="#DejaVuSans-72" transform="translate(239.990234 0)"/>
     <use xlink:href="#DejaVuSans-75" transform="translate(281.103516 0)"/>
     <use xlink:href="#DejaVuSans-6d" transform="translate(344.482422 0)"/>
     <use xlink:href="#DejaVuSans-3a" transform="translate(441.894531 0)"/>
     <use xlink:href="#DejaVuSans-20" transform="translate(475.585938 0)"/>
     <use xlink:href="#DejaVuSans-2248" transform="translate(507.373047 0)"/>
     <use xlink:href="#DejaVuSans-20" transform="translate(591.162109 0)"/>
     <use xlink:href="#DejaVuSans-37" transform="translate(622.949219 0)"/>
     <use xlink:href="#DejaVuSans-20" transform="translate(686.572266 0)"/>
     <use xlink:href="#DejaVuSans-64" transform="translate(718.359375 0)"/>
     <use xlink:href="#DejaVuSans-61" transform="translate(781.835938 0)"/>
     <use xlink:href="#DejaVuSans-79" transform="translate(843.115234 0)"/>
     <use xlink:href="#DejaVuSans-73" transform="translate(902.294922 0)"/>
    </g>
   </g>
   <g id="text_9">
    <!-- Finality Pyramid (Data-driven) -->
    <g style="fill: #0f172a" transform="translate(195.993906 36.218131) scale(0.17 -0.17)">
     <defs>
      <path id="DejaVuSans-Bold-79" d="M 78 3500 
L 1197 3500 
L 2138 1125 
L 2938 3500 
L 4056 3500 
L 2584 -331 
Q 2363 -916 2067 -1148 
Q 1772 -1381 1288 -1381 
L 641 -1381 
L 641 -647 
L 991 -647 
Q 1275 -647 1404 -556 
Q 1534 -466 1606 -231 
L 1638 -134 
L 78 3500 
z
" transform="scale(0.015625)"/>
      <path id="DejaVuSans-Bold-6d" d="M 3781 2919 
Q 3994 3244 4286 3414 
Q 4578 3584 4928 3584 
Q 5531 3584 5847 3212 
Q 6163 2841 6163 2131 
L 6163 0 
L 5038 0 
L 5038 1825 
Q 5041 1866 5042 1909 
Q 5044 1953 5044 2034 
Q 5044 2406 4934 2573 
Q 4825 2741 4581 2741 
Q 4263 2741 4089 2478 
Q 3916 2216 3909 1719 
L 3909 0 
L 2784 0 
L 2784 1825 
Q 2784 2406 2684 2573 
Q 2584 2741 2328 2741 
Q 2006 2741 1831 2477 
Q 1656 2213 1656 1722 
L 1656 0 
L 531 0 
L 531 3500 
L 1656 3500 
L 1656 2988 
Q 1863 3284 2130 3434 
Q 2397 3584 2719 3584 
Q 3081 3584 3359 3409 
Q 3638 3234 3781 2919 
z
" transform="scale(0.015625)"/>
      <path id="DejaVuSans-Bold-44" d="M 1791 3756 
L 1791 909 
L 2222 909 
Q 2959 909 3348 1275 
Q 3738 1641 3738 2338 
Q 3738 3031 3350 3393 
Q 2963 3756 2222 3756 
L 1791 3756 
z
M 588 4666 
L 1856 4666 
Q 2919 4666 3439 4514 
Q 3959 4363 4331 4000 
Q 4659 3684 4818 3271 
Q 4978 2859 4978 2338 
Q 4978 1809 4818 1395 
Q 4659 981 4331 666 
Q 3956 303 3431 151 
Q 2906 0 1856 0 
L 588 0 
L 588 4666 
z
" transform="scale(0.015625)"/>
     </defs>
     <use xlink:href="#DejaVuSans-Bold-46"/>
     <use xlink:href="#DejaVuSans-Bold-69" transform="translate(68.310547 0)"/>
     <use xlink:href="#DejaVuSans-Bold-6e" transform="translate(102.587891 0)"/>
     <use xlink:href="#DejaVuSans-Bold-61" transform="translate(173.779297 0)"/>
     <use xlink:href="#DejaVuSans-Bold-6c" transform="translate(241.259766 0)"/>
     <use xlink:href="#DejaVuSans-Bold-69" transform="translate(275.537109 0)"/>
     <use xlink:href="#DejaVuSans-Bold-74" transform="translate(309.814453 0)"/>
     <use xlink:href="#DejaVuSans-Bold-79" transform="translate(357.617188 0)"/>
     <use xlink:href="#DejaVuSans-Bold-20" transform="translate(422.802734 0)"/>
     <use xlink:href="#DejaVuSans-Bold-50" transform="translate(457.617188 0)"/>
     <use xlink:href="#DejaVuSans-Bold-79" transform="translate(532.783203 0)"/>
     <use xlink:href="#DejaVuSans-Bold-72" transform="translate(597.96875 0)"/>
     <use xlink:href="#DejaVuSans-Bold-61" transform="translate(647.285156 0)"/>
     <use xlink:href="#DejaVuSans-Bold-6d" transform="translate(714.765625 0)"/>
     <use xlink:href="#DejaVuSans-Bold-69" transform="translate(818.964844 0)"/>
     <use xlink:href="#DejaVuSans-Bold-64" transform="translate(853.242188 0)"/>
     <use xlink:href="#DejaVuSans-Bold-20" transform="translate(924.824219 0)"/>
     <use xlink:href="#DejaVuSans-Bold-28" transform="translate(959.638672 0)"/>
     <use xlink:href="#DejaVuSans-Bold-44" transform="translate(1005.341797 0)"/>
     <use xlink:href="#DejaVuSans-Bold-61" transform="translate(1088.349609 0)"/>
     <use xlink:href="#DejaVuSans-Bold-74" transform="translate(1155.830078 0)"/>
     <use xlink:href="#DejaVuSans-Bold-61" transform="translate(1203.632812 0)"/>
     <use xlink:href="#DejaVuSans-Bold-2d" transform="translate(1271.113281 0)"/>
     <use xlink:href="#DejaVuSans-Bold-64" transform="translate(1312.617188 0)"/>
     <use xlink:href="#DejaVuSans-Bold-72" transform="translate(1384.199219 0)"/>
     <use xlink:href="#DejaVuSans-Bold-69" transform="translate(1433.515625 0)"/>
     <use xlink:href="#DejaVuSans-Bold-76" transform="translate(1467.792969 0)"/>
     <use xlink:href="#DejaVuSans-Bold-65" transform="translate(1532.978516 0)"/>
     <use xlink:href="#DejaVuSans-Bold-6e" transform="translate(1600.800781 0)"/>
     <use xlink:href="#DejaVuSans-Bold-29" transform="translate(1671.992188 0)"/>
    </g>
   </g>
   <g id="text_10">
    <!-- B = L2 inter-block median (p50).   C = L2L1 posting delay median (p50). -->
    <g style="fill: #0f172a" transform="translate(163.6545 437.8458) scale(0.096 -0.096)">
     <defs>
      <path id="DejaVuSans-4c" d="M 628 4666 
L 1259 4666 
L 1259 531 
L 3531 531 
L 3531 0 
L 628 0 
L 628 4666 
z
" transform="scale(0.015625)"/>
      <path id="DejaVuSans-2d" d="M 313 2009 
L 1997 2009 
L 1997 1497 
L 313 1497 
L 313 2009 
z
" transform="scale(0.015625)"/>
      <path id="DejaVuSans-6b" d="M 581 4863 
L 1159 4863 
L 1159 1991 
L 2875 3500 
L 3609 3500 
L 1753 1863 
L 3688 0 
L 2938 0 
L 1159 1709 
L 1159 0 
L 581 0 
L 581 4863 
z
" transform="scale(0.015625)"/>
      <path id="DejaVuSans-2e" d="M 684 794 
L 1344 794 
L 1344 0 
L 684 0 
L 684 794 
z
" transform="scale(0.015625)"/>
      <path id="DejaVuSans-2192" d="M 5050 2147 
L 5050 1866 
L 3822 638 
L 3447 1013 
L 4175 1741 
L 366 1741 
L 366 2272 
L 4175 2272 
L 3447 3000 
L 3822 3375 
L 5050 2147 
z
" transform="scale(0.015625)"/>
     </defs>
     <use xlink:href="#DejaVuSans-42"/>
     <use xlink:href="#DejaVuSans-20" transform="translate(68.603516 0)"/>
     <use xlink:href="#DejaVuSans-3d" transform="translate(100.390625 0)"/>
     <use xlink:href="#DejaVuSans-20" transform="translate(184.179688 0)"/>
     <use xlink:href="#DejaVuSans-4c" transform="translate(215.966797 0)"/>
     <use xlink:href="#DejaVuSans-32" transform="translate(271.679688 0)"/>
     <use xlink:href="#DejaVuSans-20" transform="translate(335.302734 0)"/>
     <use xlink:href="#DejaVuSans-69" transform="translate(367.089844 0)"/>
     <use xlink:href="#DejaVuSans-6e" transform="translate(394.873047 0)"/>
     <use xlink:href="#DejaVuSans-74" transform="translate(458.251953 0)"/>
     <use xlink:href="#DejaVuSans-65" transform="translate(497.460938 0)"/>
     <use xlink:href="#DejaVuSans-72" transform="translate(558.984375 0)"/>
     <use xlink:href="#DejaVuSans-2d" transform="translate(593.722656 0)"/>
     <use xlink:href="#DejaVuSans-62" transform="translate(629.806641 0)"/>
     <use xlink:href="#DejaVuSans-6c" transform="translate(693.283203 0)"/>
     <use xlink:href="#DejaVuSans-6f" transform="translate(721.066406 0)"/>
     <use xlink:href="#DejaVuSans-63" transform="translate(782.248047 0)"/>
     <use xlink:href="#DejaVuSans-6b" transform="translate(837.228516 0)"/>
     <use xlink:href="#DejaVuSans-20" transform="translate(895.138672 0)"/>
     <use xlink:href="#DejaVuSans-6d" transform="translate(926.925781 0)"/>
     <use xlink:href="#DejaVuSans-65" transform="translate(1024.337891 0)"/>
     <use xlink:href="#DejaVuSans-64" transform="translate(1085.861328 0)"/>
     <use xlink:href="#DejaVuSans-69" transform="translate(1149.337891 0)"/>
     <use xlink:href="#DejaVuSans-61" transform="translate(1177.121094 0)"/>
     <use xlink:href="#DejaVuSans-6e" transform="translate(1238.400391 0)"/>
     <use xlink:href="#DejaVuSans-20" transform="translate(1301.779297 0)"/>
     <use xlink:href="#DejaVuSans-28" transform="translate(1333.566406 0)"/>
     <use xlink:href="#DejaVuSans-70" transform="translate(1372.580078 0)"/>
     <use xlink:href="#DejaVuSans-35" transform="translate(1436.056641 0)"/>
     <use xlink:href="#DejaVuSans-30" transform="translate(1499.679688 0)"/>
     <use xlink:href="#DejaVuSans-29" transform="translate(1563.302734 0)"/>
     <use xlink:href="#DejaVuSans-2e" transform="translate(1602.316406 0)"/>
     <use xlink:href="#DejaVuSans-20" transform="translate(1634.103516 0)"/>
     <use xlink:href="#DejaVuSans-20" transform="translate(1665.890625 0)"/>
     <use xlink:href="#DejaVuSans-20" transform="translate(1697.677734 0)"/>
     <use xlink:href="#DejaVuSans-43" transform="translate(1729.464844 0)"/>
     <use xlink:href="#DejaVuSans-20" transform="translate(1799.289062 0)"/>
     <use xlink:href="#DejaVuSans-3d" transform="translate(1831.076172 0)"/>
     <use xlink:href="#DejaVuSans-20" transform="translate(1914.865234 0)"/>
     <use xlink:href="#DejaVuSans-4c" transform="translate(1946.652344 0)"/>
     <use xlink:href="#DejaVuSans-32" transform="translate(2002.365234 0)"/>
     <use xlink:href="#DejaVuSans-2192" transform="translate(2065.988281 0)"/>
     <use xlink:href="#DejaVuSans-4c" transform="translate(2149.777344 0)"/>
     <use xlink:href="#DejaVuSans-31" transform="translate(2205.490234 0)"/>
     <use xlink:href="#DejaVuSans-20" transform="translate(2269.113281 0)"/>
     <use xlink:href="#DejaVuSans-70" transform="translate(2300.900391 0)"/>
     <use xlink:href="#DejaVuSans-6f" transform="translate(2364.376953 0)"/>
     <use xlink:href="#DejaVuSans-73" transform="translate(2425.558594 0)"/>
     <use xlink:href="#DejaVuSans-74" transform="translate(2477.658203 0)"/>
     <use xlink:href="#DejaVuSans-69" transform="translate(2516.867188 0)"/>
     <use xlink:href="#DejaVuSans-6e" transform="translate(2544.650391 0)"/>
     <use xlink:href="#DejaVuSans-67" transform="translate(2608.029297 0)"/>
     <use xlink:href="#DejaVuSans-20" transform="translate(2671.505859 0)"/>
     <use xlink:href="#DejaVuSans-64" transform="translate(2703.292969 0)"/>
     <use xlink:href="#DejaVuSans-65" transform="translate(2766.769531 0)"/>
     <use xlink:href="#DejaVuSans-6c" transform="translate(2828.292969 0)"/>
     <use xlink:href="#DejaVuSans-61" transform="translate(2856.076172 0)"/>
     <use xlink:href="#DejaVuSans-79" transform="translate(2917.355469 0)"/>
     <use xlink:href="#DejaVuSans-20" transform="translate(2976.535156 0)"/>
     <use xlink:href="#DejaVuSans-6d" transform="translate(3008.322266 0)"/>
     <use xlink:href="#DejaVuSans-65" transform="translate(3105.734375 0)"/>
     <use xlink:href="#DejaVuSans-64" transform="translate(3167.257812 0)"/>
     <use xlink:href="#DejaVuSans-69" transform="translate(3230.734375 0)"/>
     <use xlink:href="#DejaVuSans-61" transform="translate(3258.517578 0)"/>
     <use xlink:href="#DejaVuSans-6e" transform="translate(3319.796875 0)"/>
     <use xlink:href="#DejaVuSans-20" transform="translate(3383.175781 0)"/>
     <use xlink:href="#DejaVuSans-28" transform="translate(3414.962891 0)"/>
     <use xlink:href="#DejaVuSans-70" transform="translate(3453.976562 0)"/>
     <use xlink:href="#DejaVuSans-35" transform="translate(3517.453125 0)"/>
     <use xlink:href="#DejaVuSans-30" transform="translate(3581.076172 0)"/>
     <use xlink:href="#DejaVuSans-29" transform="translate(3644.699219 0)"/>
     <use xlink:href="#DejaVuSans-2e" transform="translate(3683.712891 0)"/>
    </g>
   </g>
  </g>
 </g>
 <defs>
  <clipPath id="pd439475e3b">
   <rect x="7.2" y="7.2" width="669.6" height="443.52"/>
  </clipPath>
 </defs>
</svg>
